<svg width="18" height="19" viewBox="0 0 18 19" fill="none" xmlns="http://www.w3.org/2000/svg">
<path d="M16.0312 12.8048C15.967 12.8414 15.8962 12.865 15.8228 12.8742C15.7494 12.8835 15.6749 12.8781 15.6036 12.8585C15.5323 12.8389 15.4655 12.8055 15.4072 12.76C15.3488 12.7146 15.2999 12.6581 15.2634 12.5938L13.9275 10.2594C13.1508 10.7846 12.2941 11.1802 11.3906 11.4309L11.8034 13.9073C11.8155 13.9802 11.8132 14.0548 11.7966 14.1268C11.7799 14.1988 11.7492 14.2668 11.7062 14.3269C11.6633 14.3871 11.6089 14.4382 11.5462 14.4773C11.4834 14.5164 11.4136 14.5427 11.3407 14.5548C11.3107 14.5597 11.2804 14.5623 11.25 14.5626C11.1169 14.5624 10.9882 14.515 10.8868 14.4289C10.7854 14.3428 10.7177 14.2235 10.6959 14.0922L10.2902 11.6608C9.43467 11.7798 8.56674 11.7798 7.71117 11.6608L7.30547 14.0922C7.28364 14.2237 7.21581 14.3432 7.11407 14.4293C7.01234 14.5155 6.88331 14.5627 6.75 14.5626C6.71891 14.5624 6.68787 14.5599 6.65719 14.5548C6.58427 14.5427 6.51446 14.5164 6.45174 14.4773C6.38902 14.4382 6.33462 14.3871 6.29165 14.3269C6.24868 14.2668 6.21799 14.1988 6.20133 14.1268C6.18466 14.0548 6.18235 13.9802 6.19453 13.9073L6.60937 11.4309C5.7063 11.1794 4.85002 10.7831 4.0739 10.2573L2.74219 12.5938C2.70525 12.6582 2.656 12.7146 2.59725 12.76C2.5385 12.8053 2.4714 12.8386 2.39977 12.858C2.32815 12.8774 2.2534 12.8825 2.17981 12.873C2.10622 12.8635 2.03522 12.8396 1.97086 12.8027C1.9065 12.7657 1.85005 12.7165 1.80472 12.6577C1.7594 12.599 1.72609 12.5319 1.7067 12.4602C1.68731 12.3886 1.68221 12.3139 1.69171 12.2403C1.7012 12.1667 1.7251 12.0957 1.76203 12.0313L3.16828 9.57039C2.67433 9.14365 2.22013 8.67297 1.81125 8.16414C1.76026 8.1072 1.7214 8.04048 1.69706 7.96803C1.67271 7.89558 1.66339 7.81893 1.66965 7.74275C1.67591 7.66658 1.69764 7.59249 1.73349 7.52499C1.76934 7.45749 1.81857 7.398 1.87818 7.35017C1.93779 7.30233 2.00652 7.26714 2.08018 7.24675C2.15384 7.22635 2.23088 7.22119 2.3066 7.23156C2.38232 7.24193 2.45514 7.26763 2.5206 7.30708C2.58606 7.34653 2.6428 7.3989 2.68734 7.46101C3.85453 8.90523 5.8964 10.6251 9 10.6251C12.1036 10.6251 14.1455 8.90312 15.3127 7.46101C15.3567 7.39763 15.4133 7.344 15.479 7.30343C15.5446 7.26287 15.6179 7.23626 15.6943 7.22524C15.7707 7.21423 15.8485 7.21905 15.923 7.2394C15.9974 7.25976 16.0669 7.29522 16.127 7.34357C16.1872 7.39192 16.2367 7.45214 16.2726 7.52046C16.3085 7.58879 16.3299 7.66377 16.3356 7.74074C16.3412 7.8177 16.331 7.89501 16.3055 7.96785C16.28 8.04069 16.2398 8.10751 16.1873 8.16414C15.7785 8.67297 15.3243 9.14365 14.8303 9.57039L16.2366 12.0313C16.2743 12.0955 16.299 12.1665 16.3091 12.2402C16.3192 12.314 16.3145 12.389 16.2954 12.4609C16.2763 12.5329 16.2432 12.6003 16.1978 12.6593C16.1525 12.7183 16.0958 12.7678 16.0312 12.8048Z" fill="white"/>
</svg>
